<svg width="49" height="44" viewBox="0 0 49 44" fill="none" xmlns="http://www.w3.org/2000/svg">
<path id="australia" fill-rule="evenodd" clip-rule="evenodd" d="M4.12213 32.8771C4.60545 29.7852 3.25319 26.6158 1.79811 23.6997C1.60829 23.3196 1.41741 22.9438 1.22904 22.5729C0.830641 21.7884 0.443482 21.0261 0.101358 20.2924C-0.00147482 20.0701 -0.0271831 19.8167 0.0293751 19.5737L0.949732 15.7166C1.03714 15.3443 1.31479 15.0445 1.67985 14.9307C3.6491 14.3103 9.93735 12.0767 10.5029 8.79347C10.5132 8.72625 10.5492 8.66938 10.5955 8.62284L15.9582 3.4266C16.092 3.29735 16.3079 3.31286 16.4262 3.45763C16.9301 4.09359 18.3337 5.51027 20.4212 4.81227L19.7733 4.15563C19.6448 4.03154 19.65 3.82472 19.7785 3.70064L22.2311 1.37396C22.2876 1.31709 22.3647 1.28606 22.447 1.28606H29.923C30.1904 1.28606 30.3394 1.60146 30.1698 1.80827L27.7686 4.73988C27.6504 4.88982 27.6812 5.10698 27.8406 5.21039C28.3202 5.52413 29.3175 6.179 30.372 6.87145C31.1944 7.41144 32.0516 7.97428 32.7252 8.41603C33.5068 8.9279 34.5609 8.60733 34.9155 7.73871C35.3115 6.77185 35.6816 5.26726 35.6868 3.02849C35.6868 2.99229 35.692 2.95093 35.7073 2.91474L36.746 0.215794C36.8436 -0.0323845 37.183 -0.0582364 37.3167 0.174431C37.8258 1.06374 38.7358 2.95093 38.7358 5.15351L39.2345 4.79159C39.3734 4.68818 39.5687 4.7192 39.6716 4.85363L40.7616 6.28066C40.8079 6.3427 40.8284 6.42543 40.8233 6.50299C40.7513 7.27337 40.5508 11.5183 44.258 13.2193C44.3248 13.2503 44.3814 13.302 44.4122 13.3693L48.9369 22.4691C48.9575 22.5157 48.9677 22.5622 48.9677 22.6139V26.4452C48.9677 27.0295 48.7209 27.5827 48.2838 27.9705C46.51 29.5526 41.8722 33.9423 41.5894 36.9825C41.574 37.1428 41.4403 37.2668 41.2758 37.2668H33.3011C33.2497 37.2668 33.1983 37.2565 33.152 37.2307C32.6378 36.9515 29.923 33.3736 29.3729 29.9042C29.3317 29.6457 29.0078 29.5475 28.8279 29.7439L27.0436 31.7294C26.8791 31.9155 26.6426 32.0189 26.3958 32.0189C26.1232 32.0189 25.8919 31.8224 25.8457 31.5536C25.64 30.3436 24.7248 27.1794 20.8891 27.1794C18.8324 27.1794 15.6292 27.9757 12.6573 28.8753C12.6573 28.8753 9.36663 29.9094 6.93462 33.2184C6.85236 33.3322 6.71867 33.3994 6.57471 33.3994H4.56946C4.29181 33.3994 4.081 33.1512 4.12213 32.8771ZM40.5199 43.2024C40.3503 43.8694 39.5739 44.1693 39.0031 43.7815C37.9543 43.068 36.3706 41.8219 34.936 39.9916C34.7253 39.7227 34.9155 39.3246 35.26 39.3246H40.9673C41.2397 39.3246 41.4351 39.578 41.3683 39.8416L40.5199 43.2024Z" fill="#0E8784"/>
</svg>
