<svg width="16" height="15" viewBox="0 0 16 15" fill="none" xmlns="http://www.w3.org/2000/svg">
<g id="header_icon">
<path id="Combined Shape" fill-rule="evenodd" clip-rule="evenodd" d="M0 1.5C0 0.671573 0.671573 0 1.5 0H14.5C15.3284 0 16 0.671573 16 1.5C16 2.32843 15.3284 3 14.5 3H1.5C0.671573 3 0 2.32843 0 1.5ZM0 7.5C0 6.67157 0.671573 6 1.5 6H14.5C15.3284 6 16 6.67157 16 7.5C16 8.32843 15.3284 9 14.5 9H1.5C0.671573 9 0 8.32843 0 7.5ZM1.5 12C0.671573 12 0 12.6716 0 13.5C0 14.3284 0.671573 15 1.5 15H14.5C15.3284 15 16 14.3284 16 13.5C16 12.6716 15.3284 12 14.5 12H1.5Z" fill="#333D4B"/>
</g>
</svg>
