<svg width="237" height="27" viewBox="0 0 237 27" fill="none" xmlns="http://www.w3.org/2000/svg">
<g id="logo_coffee">
<path id="coffeeroasters" fill-rule="evenodd" clip-rule="evenodd" d="M75.7514 23.8595C75.7514 24.3664 75.4961 24.6198 74.9854 24.6198H65.9885C65.7712 24.6198 65.5946 24.5565 65.4588 24.4298C65.323 24.303 65.2551 24.124 65.2551 23.8926C65.2551 23.6942 65.3013 23.5344 65.3936 23.4132C65.486 23.292 65.6299 23.1928 65.8255 23.1157L66.5264 22.9008C66.7002 22.8457 66.836 22.741 66.9338 22.5868C67.0316 22.4325 67.0805 22.2121 67.0805 21.9256V12.3719C67.0805 12.2176 67.0425 12.0882 66.9664 11.9835C66.8904 11.8788 66.7491 11.7824 66.5427 11.6942L65.5974 11.3802C65.3474 11.259 65.1682 11.1295 65.0595 10.9917C64.9508 10.854 64.8965 10.686 64.8965 10.4876C64.8965 10.2893 64.9644 10.1267 65.1002 10L65.1536 9.95545C65.2837 9.85843 65.4534 9.80992 65.6625 9.80992H67.0928L67.0815 9.71333C67.051 9.52014 66.9746 9.33471 66.8523 9.15702C66.6894 8.92011 66.5046 8.65289 66.2982 8.35537C66.0917 8.05785 65.907 7.70248 65.744 7.28926C65.5811 6.87603 65.4996 6.36639 65.4996 5.76033C65.4996 4.3168 65.9885 3.16253 66.9664 2.29752C67.9444 1.43251 69.3352 1 71.1389 1C72.3015 1 73.2659 1.18733 74.0319 1.56198C74.798 1.93664 75.3711 2.43526 75.7514 3.05785C76.1317 3.68044 76.3219 4.36088 76.3219 5.09917C76.3219 5.9697 76.0964 6.62259 75.6455 7.05785C75.1946 7.49311 74.616 7.71074 73.9097 7.71074C73.1273 7.71074 72.4971 7.4573 72.019 6.95041C71.5409 6.44353 71.3019 5.77135 71.3019 4.93388V3.46281C71.3019 3.07713 71.2258 2.79339 71.0737 2.61157C70.9216 2.42975 70.688 2.33884 70.3729 2.33884C69.9708 2.33884 69.6666 2.47658 69.4601 2.75207C69.2537 3.02755 69.1505 3.42424 69.1505 3.94215C69.1505 4.47107 69.2727 4.96694 69.5172 5.42975C69.7617 5.89256 70.0632 6.32507 70.4218 6.72727C70.7803 7.12948 71.1389 7.51515 71.4975 7.8843C71.856 8.25344 72.1576 8.61708 72.402 8.97521L72.4717 9.08256C72.6037 9.29711 72.6918 9.51066 72.7358 9.72322L72.7507 9.80992H75.1647C75.4146 9.80992 75.6075 9.86226 75.7433 9.96694C75.8791 10.0716 75.947 10.2342 75.947 10.4545C75.947 10.7851 75.8058 11.0551 75.5232 11.2645C75.2407 11.4738 74.7952 11.5785 74.1868 11.5785H73.0295V21.876C73.0295 22.1846 73.0757 22.4215 73.1681 22.5868C73.2604 22.7521 73.4098 22.8512 73.6163 22.8843L75.018 23.0992C75.2679 23.1322 75.4526 23.2121 75.5721 23.3388C75.6917 23.4656 75.7514 23.6391 75.7514 23.8595ZM43.6593 24.2397C42.6814 24.7135 41.5405 24.9504 40.2366 24.9504C38.8567 24.9504 37.6207 24.6584 36.5287 24.0744C35.4367 23.4904 34.5755 22.6446 33.9453 21.5372C33.3151 20.4298 33 19.0826 33 17.4959C33 15.9642 33.3287 14.595 33.9861 13.3884C34.6434 12.1818 35.5589 11.2287 36.7324 10.5289C37.9059 9.8292 39.275 9.47934 40.8397 9.47934C42.1762 9.47934 43.3035 9.67769 44.2216 10.0744C45.1398 10.4711 45.8406 11.0083 46.3242 11.686C46.8077 12.3636 47.0495 13.1212 47.0495 13.9587C47.0495 14.8402 46.7968 15.5317 46.2916 16.0331C45.7863 16.5344 45.099 16.7851 44.2298 16.7851C43.3388 16.7851 42.6624 16.5289 42.2006 16.0165C41.7388 15.5041 41.5079 14.8017 41.5079 13.9091V12.8512C41.5079 12.3113 41.4101 11.9036 41.2145 11.6281C41.0189 11.3526 40.7419 11.2149 40.3833 11.2149C40.0247 11.2149 39.7015 11.3609 39.4135 11.6529C39.1256 11.9449 38.9028 12.3829 38.7453 12.9669C38.5877 13.551 38.509 14.2727 38.509 15.1322C38.509 16.3664 38.691 17.4022 39.055 18.2397C39.419 19.0771 39.9161 19.7052 40.5463 20.124C41.1765 20.5427 41.8936 20.7521 42.6977 20.7521C43.5018 20.7521 44.1755 20.6336 44.7187 20.3967C45.262 20.1598 45.6804 19.7603 45.9737 19.1983C46.1367 19.0441 46.2644 18.9449 46.3568 18.9008C46.4491 18.8567 46.5388 18.8347 46.6257 18.8347C46.7344 18.8457 46.824 18.8981 46.8946 18.9917C46.9652 19.0854 46.9951 19.2314 46.9843 19.4298C46.8973 20.5096 46.5659 21.4628 45.99 22.2893C45.4142 23.1157 44.6373 23.7658 43.6593 24.2397ZM60.2269 23.9091C59.0045 24.5813 57.5838 24.9174 55.9648 24.9174C54.3893 24.9174 53.0066 24.5895 51.8168 23.9339C50.627 23.2782 49.7007 22.3719 49.0379 21.2149C48.3751 20.0579 48.0437 18.719 48.0437 17.1983C48.0437 15.7438 48.3914 14.4353 49.0868 13.2727C49.7822 12.1102 50.7438 11.1873 51.9717 10.5041C53.1995 9.82094 54.612 9.47934 56.2093 9.47934C57.7957 9.47934 59.1811 9.80992 60.3655 10.4711C61.5498 11.1322 62.4734 12.0468 63.1362 13.2149C63.7991 14.3829 64.1305 15.7328 64.1305 17.2645C64.1305 18.719 63.7855 20.022 63.0955 21.1736C62.4055 22.3251 61.4493 23.2369 60.2269 23.9091ZM57.2035 23.1983C56.8667 23.2645 56.538 23.1157 56.2175 22.7521C55.8969 22.3884 55.5927 21.7769 55.3047 20.9174C55.0168 20.0579 54.7424 18.9284 54.4817 17.5289C54.2317 16.1295 54.0905 14.978 54.0579 14.0744C54.0253 13.1708 54.0905 12.4876 54.2535 12.0248C54.4165 11.562 54.6664 11.292 55.0032 11.2149C55.3401 11.1488 55.6687 11.2975 55.9893 11.6612C56.3098 12.0248 56.6168 12.6364 56.9102 13.4959C57.2035 14.3554 57.4806 15.4848 57.7414 16.8843C58.0022 18.2837 58.1461 19.438 58.1733 20.3471C58.2005 21.2562 58.1298 21.9421 57.9614 22.405C57.793 22.8678 57.5404 23.1322 57.2035 23.1983ZM86.3619 24.6198C86.8726 24.6198 87.1279 24.3664 87.1279 23.8595C87.1279 23.6391 87.0681 23.4656 86.9486 23.3388C86.8291 23.2121 86.6444 23.1322 86.3945 23.0992L84.9928 22.8843C84.7863 22.8512 84.6369 22.7521 84.5446 22.5868C84.4522 22.4215 84.406 22.1846 84.406 21.876V11.5785H85.5632C86.1717 11.5785 86.6172 11.4738 86.8997 11.2645C87.1822 11.0551 87.3235 10.7851 87.3235 10.4545C87.3235 10.2342 87.2556 10.0716 87.1198 9.96694C86.9839 9.86226 86.7911 9.80992 86.5411 9.80992H84.1271L84.1122 9.72322C84.0682 9.51066 83.9802 9.29711 83.8482 9.08256L83.7785 8.97521C83.534 8.61708 83.2325 8.25344 82.8739 7.8843C82.5154 7.51515 82.1568 7.12948 81.7982 6.72727C81.4397 6.32507 81.1381 5.89256 80.8937 5.42975C80.6492 4.96694 80.5269 4.47107 80.5269 3.94215C80.5269 3.42424 80.6302 3.02755 80.8366 2.75207C81.0431 2.47658 81.3473 2.33884 81.7493 2.33884C82.0644 2.33884 82.2981 2.42975 82.4502 2.61157C82.6023 2.79339 82.6784 3.07713 82.6784 3.46281V4.93388C82.6784 5.77135 82.9174 6.44353 83.3955 6.95041C83.8736 7.4573 84.5038 7.71074 85.2862 7.71074C85.9924 7.71074 86.571 7.49311 87.022 7.05785C87.4729 6.62259 87.6984 5.9697 87.6984 5.09917C87.6984 4.36088 87.5082 3.68044 87.1279 3.05785C86.7476 2.43526 86.1744 1.93664 85.4084 1.56198C84.6424 1.18733 83.678 1 82.5154 1C80.7117 1 79.3208 1.43251 78.3429 2.29752C77.365 3.16253 76.876 4.3168 76.876 5.76033C76.876 6.36639 76.9575 6.87603 77.1205 7.28926C77.2835 7.70248 77.4682 8.05785 77.6747 8.35537C77.8811 8.65289 78.0658 8.92011 78.2288 9.15702C78.3511 9.33471 78.4275 9.52014 78.458 9.71333L78.4692 9.80992H77.039C76.8299 9.80992 76.6602 9.85843 76.5301 9.95545L76.4767 10C76.3409 10.1267 76.273 10.2893 76.273 10.4876C76.273 10.686 76.3273 10.854 76.436 10.9917C76.5446 11.1295 76.7239 11.259 76.9738 11.3802L77.9192 11.6942C78.1256 11.7824 78.2669 11.8788 78.3429 11.9835C78.419 12.0882 78.457 12.2176 78.457 12.3719V21.9256C78.457 22.2121 78.4081 22.4325 78.3103 22.5868C78.2125 22.741 78.0767 22.8457 77.9029 22.9008L77.202 23.1157C77.0064 23.1928 76.8625 23.292 76.7701 23.4132C76.6777 23.5344 76.6316 23.6942 76.6316 23.8926C76.6316 24.124 76.6995 24.303 76.8353 24.4298C76.9711 24.5565 77.1477 24.6198 77.365 24.6198H86.3619ZM99.1237 24.1405C98.0697 24.6804 96.8528 24.9504 95.4728 24.9504C93.9516 24.9504 92.6151 24.6336 91.4633 24C90.3116 23.3664 89.4124 22.4793 88.7659 21.3388C88.1194 20.1983 87.7961 18.8788 87.7961 17.3802C87.7961 15.8044 88.1085 14.4242 88.7333 13.2397C89.3581 12.0551 90.2627 11.1322 91.447 10.4711C92.6314 9.80992 94.0548 9.47934 95.7173 9.47934C97.1299 9.47934 98.3468 9.75758 99.3682 10.314C100.39 10.8705 101.175 11.6253 101.723 12.5785C102.272 13.5317 102.546 14.5923 102.546 15.7603C102.546 16.2672 102.411 16.6667 102.139 16.9587L102.074 17.0235C101.806 17.2723 101.437 17.3967 100.965 17.3967H93.5147L93.5307 17.4729C93.7284 18.3804 94.0661 19.1071 94.5438 19.6529C95.3587 20.584 96.4453 21.0496 97.8035 21.0496C98.6728 21.0496 99.4416 20.8512 100.11 20.4545C100.778 20.0578 101.226 19.5069 101.454 18.8017C101.585 18.6584 101.702 18.562 101.805 18.5124C101.908 18.4628 101.998 18.438 102.074 18.438C102.182 18.438 102.275 18.4821 102.351 18.5702C102.427 18.6584 102.465 18.8072 102.465 19.0165C102.465 20.0964 102.172 21.0854 101.585 21.9835C100.998 22.8815 100.178 23.6005 99.1237 24.1405ZM93.3447 16.0717C93.3291 15.8181 93.3214 15.5546 93.3214 15.281C93.3214 14.2452 93.3975 13.4298 93.5496 12.8347C93.7017 12.2397 93.8973 11.8182 94.1363 11.5702C94.3754 11.3223 94.6416 11.1983 94.935 11.1983C95.3153 11.1983 95.6711 11.5234 96.0025 12.1736C96.3339 12.8237 96.4996 13.9036 96.4996 15.4132C96.4996 15.876 96.2932 16.1074 95.8803 16.1074H93.3467L93.3447 16.0717ZM114.705 24.1405C113.651 24.6804 112.434 24.9504 111.054 24.9504C109.533 24.9504 108.197 24.6336 107.045 24C105.893 23.3664 104.994 22.4793 104.347 21.3388C103.701 20.1983 103.378 18.8788 103.378 17.3802C103.378 15.8044 103.69 14.4242 104.315 13.2397C104.94 12.0551 105.844 11.1322 107.029 10.4711C108.213 9.80992 109.636 9.47934 111.299 9.47934C112.711 9.47934 113.928 9.75758 114.95 10.314C115.971 10.8705 116.756 11.6253 117.305 12.5785C117.854 13.5317 118.128 14.5923 118.128 15.7603C118.128 16.2672 117.992 16.6667 117.721 16.9587L117.656 17.0235C117.388 17.2723 117.018 17.3967 116.547 17.3967H109.096L109.112 17.4729C109.31 18.3804 109.648 19.1071 110.125 19.6529C110.94 20.584 112.027 21.0496 113.385 21.0496C114.254 21.0496 115.023 20.8512 115.691 20.4545C116.36 20.0578 116.808 19.5069 117.036 18.8017C117.166 18.6584 117.283 18.562 117.386 18.5124C117.49 18.4628 117.579 18.438 117.655 18.438C117.764 18.438 117.856 18.4821 117.932 18.5702C118.008 18.6584 118.046 18.8072 118.046 19.0165C118.046 20.0964 117.753 21.0854 117.166 21.9835C116.58 22.8815 115.759 23.6005 114.705 24.1405ZM108.926 16.0717C108.911 15.8181 108.903 15.5546 108.903 15.281C108.903 14.2452 108.979 13.4298 109.131 12.8347C109.283 12.2397 109.479 11.8182 109.718 11.5702C109.957 11.3223 110.223 11.1983 110.517 11.1983C110.897 11.1983 111.253 11.5234 111.584 12.1736C111.915 12.8237 112.081 13.9036 112.081 15.4132C112.081 15.876 111.875 16.1074 111.462 16.1074H108.928L108.926 16.0717ZM128.6 24.4132C128.464 24.551 128.266 24.6198 128.005 24.6198H119.856C119.617 24.6198 119.429 24.5537 119.293 24.4215C119.158 24.2893 119.09 24.1074 119.09 23.876C119.09 23.6997 119.13 23.5537 119.212 23.438C119.293 23.3223 119.405 23.2149 119.546 23.1157L119.921 22.9669C120.062 22.9008 120.16 22.7961 120.214 22.6529C120.269 22.5096 120.296 22.2727 120.296 21.9421V13.5455C120.296 13.281 120.266 13.0909 120.206 12.9752C120.146 12.8595 120.046 12.7686 119.905 12.7025L119.481 12.6529C119.329 12.5647 119.217 12.4711 119.147 12.3719C119.076 12.2727 119.041 12.146 119.041 11.9917C119.041 11.8154 119.095 11.6584 119.204 11.5207C119.312 11.3829 119.497 11.2645 119.758 11.1653L124.387 9.82645C124.658 9.71625 124.886 9.63912 125.071 9.59504C125.256 9.55096 125.413 9.52893 125.544 9.52893C125.729 9.52893 125.867 9.59504 125.959 9.72727L125.989 9.77523C126.065 9.91344 126.118 10.1344 126.147 10.438L126.271 13.0064L126.299 12.9116C126.354 12.7327 126.415 12.5611 126.481 12.3967C126.878 11.4105 127.402 10.6777 128.054 10.1983C128.706 9.71901 129.418 9.47934 130.189 9.47934C131.123 9.47934 131.841 9.79339 132.34 10.4215C132.84 11.0496 133.09 12.0028 133.09 13.281C133.09 14.5482 132.829 15.4793 132.308 16.0744C131.786 16.6694 131.113 16.9669 130.287 16.9669C129.483 16.9669 128.888 16.7631 128.502 16.3554C128.116 15.9477 127.913 15.3691 127.891 14.6198L127.875 13.9587C127.864 13.7052 127.815 13.5069 127.728 13.3636C127.641 13.2204 127.5 13.1488 127.304 13.1488C127.109 13.1488 126.937 13.2507 126.791 13.4545C126.644 13.6584 126.533 13.9697 126.457 14.3884C126.381 14.8072 126.343 15.3416 126.343 15.9917V21.8099C126.343 22.1185 126.391 22.3636 126.489 22.5455C126.587 22.7273 126.739 22.8402 126.946 22.8843L128.168 23.1322C128.396 23.1653 128.559 23.2507 128.657 23.3884C128.755 23.5262 128.804 23.6887 128.804 23.876C128.804 24.0964 128.736 24.2755 128.6 24.4132ZM141.631 24.9174C143.25 24.9174 144.67 24.5813 145.893 23.9091C147.115 23.2369 148.071 22.3251 148.761 21.1736C149.451 20.022 149.796 18.719 149.796 17.2645C149.796 15.7328 149.465 14.3829 148.802 13.2149C148.139 12.0468 147.216 11.1322 146.031 10.4711C144.847 9.80992 143.462 9.47934 141.875 9.47934C140.278 9.47934 138.865 9.82094 137.637 10.5041C136.41 11.1873 135.448 12.1102 134.753 13.2727C134.057 14.4353 133.71 15.7438 133.71 17.1983C133.71 18.719 134.041 20.0579 134.704 21.2149C135.367 22.3719 136.293 23.2782 137.483 23.9339C138.672 24.5895 140.055 24.9174 141.631 24.9174ZM141.883 22.7521C142.204 23.1157 142.533 23.2645 142.869 23.1983C143.206 23.1322 143.459 22.8678 143.627 22.405C143.796 21.9421 143.866 21.2562 143.839 20.3471C143.812 19.438 143.668 18.2837 143.407 16.8843C143.146 15.4848 142.869 14.3554 142.576 13.4959C142.283 12.6364 141.976 12.0248 141.655 11.6612C141.335 11.2975 141.006 11.1488 140.669 11.2149C140.332 11.292 140.082 11.562 139.919 12.0248C139.756 12.4876 139.691 13.1708 139.724 14.0744C139.756 14.978 139.898 16.1295 140.147 17.5289C140.408 18.9284 140.683 20.0579 140.971 20.9174C141.259 21.7769 141.563 22.3884 141.883 22.7521ZM162.721 24.9504C163.634 24.9504 164.384 24.7824 164.97 24.4463C165.557 24.1102 165.994 23.7107 166.282 23.2479C166.57 22.7851 166.714 22.3609 166.714 21.9752C166.714 21.8099 166.679 21.6722 166.608 21.562C166.538 21.4518 166.443 21.3967 166.323 21.3967C166.269 21.3967 166.22 21.4077 166.176 21.4298C166.133 21.4518 166.095 21.4848 166.062 21.5289C166.008 21.7273 165.924 21.865 165.81 21.9421C165.696 22.0193 165.573 22.0578 165.443 22.0578C165.258 22.0578 165.12 21.9945 165.027 21.8678C164.935 21.741 164.889 21.573 164.889 21.3636V14.0579C164.889 12.6033 164.397 11.4766 163.414 10.6777C162.43 9.87879 160.89 9.47934 158.793 9.47934C157.163 9.47934 155.802 9.6832 154.71 10.0909C153.618 10.4986 152.798 11.0193 152.249 11.6529C151.701 12.2865 151.426 12.9339 151.426 13.595C151.426 14.3003 151.63 14.8375 152.037 15.2066C152.445 15.5758 153.034 15.7603 153.806 15.7603C154.751 15.7603 155.495 15.5041 156.039 14.9917C156.582 14.4793 156.854 13.8154 156.854 13V11.7438C156.854 11.4353 156.949 11.1956 157.139 11.0248C157.329 10.854 157.565 10.7686 157.848 10.7686C158.152 10.7686 158.394 10.8815 158.573 11.1074C158.752 11.3333 158.842 11.6391 158.842 12.0248L158.842 16.843L158.755 16.8241C158.493 16.7735 158.189 16.7446 157.844 16.7373L157.669 16.7355C155.332 16.7355 153.591 17.1322 152.445 17.9256C151.299 18.719 150.725 19.8264 150.725 21.2479C150.725 22.3278 151.119 23.2149 151.907 23.9091C152.695 24.6033 153.741 24.9504 155.044 24.9504C156.022 24.9504 156.935 24.7493 157.783 24.3471C158.418 24.0455 158.935 23.6493 159.332 23.1586L159.355 23.1299L159.379 23.2039C159.504 23.5612 159.733 23.8813 160.067 24.1642L160.17 24.2479C160.773 24.7163 161.624 24.9504 162.721 24.9504ZM157.106 21.8347C157.372 22.1928 157.723 22.3719 158.158 22.3719L158.251 22.3687C158.436 22.3558 158.615 22.3041 158.789 22.2137L158.842 22.1837V17.9422L158.761 17.9174C158.576 17.8678 158.359 17.843 158.109 17.843C157.685 17.843 157.345 18.0413 157.09 18.438C156.835 18.8347 156.707 19.4187 156.707 20.1901C156.707 20.9284 156.84 21.4766 157.106 21.8347ZM174.212 25C176.146 25 177.629 24.5537 178.661 23.6612C179.694 22.7686 180.21 21.551 180.21 20.0083C180.21 19.0716 180.036 18.2507 179.688 17.5455C179.34 16.8402 178.732 16.2149 177.863 15.6694C176.993 15.124 175.771 14.6088 174.195 14.124C173.609 13.9366 173.155 13.7466 172.834 13.5537C172.514 13.3609 172.294 13.1543 172.174 12.9339C172.055 12.7135 171.995 12.4766 171.995 12.2231C171.995 11.8485 172.131 11.5455 172.403 11.314C172.674 11.0826 173.076 10.9669 173.609 10.9669C174.348 10.9669 175.046 11.2149 175.703 11.7107C176.36 12.2066 177.086 13.0551 177.879 14.2562C178.085 14.5096 178.292 14.6942 178.498 14.8099C178.705 14.9256 178.9 14.9614 179.085 14.9174C179.313 14.8512 179.454 14.6997 179.509 14.4628C179.563 14.2259 179.552 13.8871 179.476 13.4463L179.052 10.405C179.009 10.0854 178.927 9.8595 178.808 9.72727C178.688 9.59504 178.531 9.52893 178.335 9.52893C178.161 9.52893 177.944 9.58953 177.683 9.71074C177.423 9.83196 177.164 9.95592 176.909 10.0826C176.654 10.2094 176.461 10.2727 176.331 10.2727C176.211 10.2727 176.034 10.2066 175.801 10.0744C175.567 9.94215 175.239 9.80992 174.815 9.67769C174.391 9.54545 173.842 9.47934 173.169 9.47934C172.049 9.47934 171.042 9.6832 170.145 10.0909C169.249 10.4986 168.542 11.0799 168.026 11.8347C167.51 12.5895 167.252 13.4904 167.252 14.5372C167.252 15.4628 167.445 16.2727 167.831 16.9669C168.217 17.6612 168.806 18.2562 169.599 18.7521C170.392 19.2479 171.392 19.6501 172.598 19.9587C173.38 20.168 173.981 20.3802 174.399 20.595C174.817 20.8099 175.105 21.0441 175.263 21.2975C175.421 21.551 175.499 21.832 175.499 22.1405C175.499 22.5482 175.363 22.8843 175.092 23.1488C174.82 23.4132 174.407 23.5455 173.853 23.5455C173.332 23.5455 172.834 23.4325 172.362 23.2066C171.889 22.9807 171.403 22.5923 170.903 22.0413C170.403 21.4904 169.844 20.7355 169.224 19.7769C169.04 19.5234 168.83 19.3471 168.597 19.2479C168.363 19.1488 168.127 19.1543 167.888 19.2645C167.66 19.3526 167.513 19.5399 167.448 19.8264C167.383 20.1129 167.399 20.4656 167.497 20.8843L168.002 24.1736C168.078 24.5041 168.187 24.7245 168.328 24.8347C168.469 24.9449 168.621 25 168.784 25C168.969 25 169.194 24.9394 169.461 24.8182L170.259 24.4545C170.525 24.3333 170.74 24.2727 170.903 24.2727C171.066 24.2727 171.281 24.3333 171.547 24.4545C171.813 24.5758 172.161 24.697 172.59 24.8182C173.019 24.9394 173.56 25 174.212 25ZM189.663 24.3802C188.946 24.7603 188.098 24.9504 187.12 24.9504C185.469 24.9504 184.227 24.5482 183.396 23.7438C182.565 22.9394 182.149 21.6722 182.149 19.9422V12.4711C182.149 12.2397 182.127 12.0634 182.084 11.9421C182.041 11.8209 181.932 11.7218 181.758 11.6446L180.992 11.3967C180.807 11.3085 180.688 11.2011 180.633 11.0744C180.579 10.9477 180.552 10.7906 180.552 10.6033C180.552 10.3719 180.633 10.1818 180.796 10.0331C180.959 9.8843 181.16 9.80992 181.399 9.80992H182.198C182.296 9.80992 182.399 9.77135 182.508 9.69421C182.616 9.61708 182.763 9.46281 182.948 9.23141L185.963 6.70248C186.18 6.43802 186.398 6.23691 186.615 6.09917C186.832 5.96143 187.05 5.89256 187.267 5.89256C187.517 5.89256 187.712 5.9697 187.854 6.12397L187.898 6.17866C188.01 6.3332 188.066 6.55739 188.066 6.85124L188.065 9.80992H191.472C191.711 9.80992 191.896 9.86226 192.026 9.96694C192.157 10.0716 192.222 10.2342 192.222 10.4545C192.222 10.7631 192.086 11.0275 191.814 11.2479L191.754 11.2935C191.48 11.4835 191.065 11.5785 190.51 11.5785H188.065L188.066 19.1157C188.066 19.9421 188.204 20.5537 188.481 20.9504C188.758 21.3471 189.163 21.5455 189.695 21.5455C189.924 21.5455 190.136 21.4959 190.331 21.3967C190.527 21.2975 190.703 21.168 190.861 21.0083C191.018 20.8485 191.168 20.6694 191.309 20.4711C191.45 20.2727 191.586 20.0744 191.717 19.876C191.825 19.832 191.92 19.8512 192.002 19.9339C192.083 20.0165 192.119 20.1846 192.108 20.438C192.032 21.3306 191.784 22.1157 191.366 22.7934C190.948 23.4711 190.38 24 189.663 24.3802ZM200.339 24.9504C201.718 24.9504 202.935 24.6804 203.989 24.1405C205.043 23.6005 205.864 22.8815 206.451 21.9835C207.037 21.0854 207.331 20.0964 207.331 19.0165C207.331 18.8072 207.293 18.6584 207.217 18.5702C207.14 18.4821 207.048 18.438 206.939 18.438C206.863 18.438 206.774 18.4628 206.671 18.5124C206.567 18.562 206.451 18.6584 206.32 18.8017C206.092 19.5069 205.644 20.0578 204.975 20.4545C204.307 20.8512 203.538 21.0496 202.669 21.0496C201.311 21.0496 200.224 20.584 199.409 19.6529C198.932 19.1071 198.594 18.3804 198.396 17.4729L198.38 17.3967H205.831C206.303 17.3967 206.672 17.2723 206.94 17.0235L207.005 16.9587C207.276 16.6667 207.412 16.2672 207.412 15.7603C207.412 14.5923 207.138 13.5317 206.589 12.5785C206.04 11.6253 205.255 10.8705 204.234 10.314C203.212 9.75758 201.996 9.47934 200.583 9.47934C198.921 9.47934 197.497 9.80992 196.313 10.4711C195.128 11.1322 194.224 12.0551 193.599 13.2397C192.974 14.4242 192.662 15.8044 192.662 17.3802C192.662 18.8788 192.985 20.1983 193.632 21.3388C194.278 22.4793 195.177 23.3664 196.329 24C197.481 24.6336 198.817 24.9504 200.339 24.9504ZM198.187 15.281C198.187 15.5546 198.195 15.8181 198.21 16.0717L198.212 16.1074H200.746C201.159 16.1074 201.365 15.876 201.365 15.4132C201.365 13.9036 201.2 12.8237 200.868 12.1736C200.537 11.5234 200.181 11.1983 199.801 11.1983C199.507 11.1983 199.241 11.3223 199.002 11.5702C198.763 11.8182 198.567 12.2397 198.415 12.8347C198.263 13.4298 198.187 14.2452 198.187 15.281ZM217.289 24.6198C217.55 24.6198 217.748 24.551 217.884 24.4132C218.02 24.2755 218.088 24.0964 218.088 23.876C218.088 23.6887 218.039 23.5262 217.941 23.3884C217.843 23.2507 217.68 23.1653 217.452 23.1322L216.23 22.8843C216.023 22.8402 215.871 22.7273 215.773 22.5455C215.676 22.3636 215.627 22.1185 215.627 21.8099V15.9917C215.627 15.3416 215.665 14.8072 215.741 14.3884C215.817 13.9697 215.928 13.6584 216.075 13.4545C216.222 13.2507 216.393 13.1488 216.588 13.1488C216.784 13.1488 216.925 13.2204 217.012 13.3636C217.099 13.5069 217.148 13.7052 217.159 13.9587L217.175 14.6198C217.197 15.3691 217.4 15.9477 217.786 16.3554C218.172 16.7631 218.767 16.9669 219.571 16.9669C220.397 16.9669 221.07 16.6694 221.592 16.0744C222.114 15.4793 222.374 14.5482 222.374 13.281C222.374 12.0028 222.124 11.0496 221.625 10.4215C221.125 9.79339 220.408 9.47934 219.473 9.47934C218.702 9.47934 217.99 9.71901 217.338 10.1983C216.686 10.6777 216.162 11.4105 215.765 12.3967C215.699 12.5611 215.639 12.7327 215.583 12.9116L215.555 13.0069L215.431 10.438C215.402 10.1344 215.35 9.91344 215.273 9.77523L215.244 9.72727C215.151 9.59504 215.013 9.52893 214.828 9.52893C214.698 9.52893 214.54 9.55096 214.355 9.59504C214.171 9.63912 213.942 9.71625 213.671 9.82645L209.042 11.1653C208.781 11.2645 208.596 11.3829 208.488 11.5207C208.379 11.6584 208.325 11.8154 208.325 11.9917C208.325 12.146 208.36 12.2727 208.431 12.3719C208.501 12.4711 208.613 12.5647 208.765 12.6529L209.189 12.7025C209.33 12.7686 209.43 12.8595 209.49 12.9752C209.55 13.0909 209.58 13.281 209.58 13.5455V21.9421C209.58 22.2727 209.553 22.5096 209.498 22.6529C209.444 22.7961 209.346 22.9008 209.205 22.9669L208.83 23.1157C208.689 23.2149 208.577 23.3223 208.496 23.438C208.414 23.5537 208.374 23.6997 208.374 23.876C208.374 24.1074 208.442 24.2893 208.577 24.4215C208.713 24.5537 208.901 24.6198 209.14 24.6198H217.289ZM234.452 23.6612C233.419 24.5537 231.936 25 230.002 25C229.35 25 228.81 24.9394 228.38 24.8182C227.951 24.697 227.603 24.5758 227.337 24.4545C227.071 24.3333 226.856 24.2727 226.693 24.2727C226.53 24.2727 226.316 24.3333 226.05 24.4545L225.251 24.8182C224.985 24.9394 224.759 25 224.575 25C224.412 25 224.26 24.9449 224.118 24.8347C223.977 24.7245 223.868 24.5041 223.792 24.1736L223.287 20.8843C223.189 20.4656 223.173 20.1129 223.238 19.8264C223.303 19.5399 223.45 19.3526 223.678 19.2645C223.917 19.1543 224.154 19.1488 224.387 19.2479C224.621 19.3471 224.83 19.5234 225.015 19.7769C225.634 20.7355 226.194 21.4904 226.693 22.0413C227.193 22.5923 227.68 22.9807 228.152 23.2066C228.625 23.4325 229.122 23.5455 229.644 23.5455C230.198 23.5455 230.611 23.4132 230.882 23.1488C231.154 22.8843 231.29 22.5482 231.29 22.1405C231.29 21.832 231.211 21.551 231.053 21.2975C230.896 21.0441 230.608 20.8099 230.19 20.595C229.771 20.3802 229.171 20.168 228.389 19.9587C227.182 19.6501 226.183 19.2479 225.39 18.7521C224.596 18.2562 224.007 17.6612 223.621 16.9669C223.235 16.2727 223.043 15.4628 223.043 14.5372C223.043 13.4904 223.301 12.5895 223.817 11.8347C224.333 11.0799 225.039 10.4986 225.936 10.0909C226.832 9.6832 227.84 9.47934 228.959 9.47934C229.633 9.47934 230.181 9.54545 230.605 9.67769C231.029 9.80992 231.358 9.94215 231.591 10.0744C231.825 10.2066 232.001 10.2727 232.121 10.2727C232.251 10.2727 232.444 10.2094 232.7 10.0826C232.955 9.95592 233.213 9.83196 233.474 9.71074C233.734 9.58953 233.952 9.52893 234.126 9.52893C234.321 9.52893 234.479 9.59504 234.598 9.72727C234.718 9.8595 234.799 10.0854 234.843 10.405L235.267 13.4463C235.343 13.8871 235.353 14.2259 235.299 14.4628C235.245 14.6997 235.104 14.8512 234.875 14.9174C234.691 14.9614 234.495 14.9256 234.289 14.8099C234.082 14.6942 233.876 14.5096 233.669 14.2562C232.876 13.0551 232.151 12.2066 231.493 11.7107C230.836 11.2149 230.138 10.9669 229.399 10.9669C228.867 10.9669 228.465 11.0826 228.193 11.314C227.921 11.5455 227.785 11.8485 227.785 12.2231C227.785 12.4766 227.845 12.7135 227.965 12.9339C228.084 13.1543 228.304 13.3609 228.625 13.5537C228.945 13.7466 229.399 13.9366 229.986 14.124C231.561 14.6088 232.784 15.124 233.653 15.6694C234.522 16.2149 235.131 16.8402 235.478 17.5455C235.826 18.2507 236 19.0716 236 20.0083C236 21.551 235.484 22.7686 234.452 23.6612Z" fill="#333D4B"/>
<path id="Combined Shape" fill-rule="evenodd" clip-rule="evenodd" d="M14.4893 5.00268C10.9749 1.49113 5.76554 0.985619 2.87661 3.87766C-0.0138254 6.76821 0.491663 11.9778 4.00008 15.4908C4.93606 16.4269 6.01454 17.1424 7.15301 17.6554C7.52651 15.4848 8.59748 13.3983 10.2234 11.6853C9.68496 11.4933 9.13297 11.3313 8.55698 11.1738C5.14606 10.2378 3.4511 7.39222 3.05511 4.05617C3.38262 4.45002 3.68082 4.86313 3.97814 5.27503C4.555 6.0742 5.12855 6.86879 5.90654 7.50922C7.11679 8.50576 8.44522 8.89045 9.89855 9.3113C9.95466 9.32755 10.011 9.34385 10.0674 9.36025C10.7559 9.55975 11.3544 9.85525 11.9034 10.2003C13.3464 9.14574 14.9738 8.44373 16.6538 8.15423C16.1423 7.01571 15.4253 5.93869 14.4893 5.00268ZM8.54648 18.4894C8.76998 16.3159 9.82296 14.1903 11.5104 12.5028C15.0248 8.99124 20.2342 8.48423 23.1232 11.3778C26.0136 14.2683 25.5096 19.4779 21.9967 22.991C20.3092 24.6785 18.1838 25.7315 16.0103 25.9565C15.7208 25.985 15.4343 26 15.1538 26C13.2849 26 11.6154 25.3445 10.3854 24.1145C8.96947 22.7 8.31549 20.7019 8.54648 18.4894ZM13.6869 20.2729C14.8388 19.3939 16.0853 19.0459 17.4413 18.6754C20.8522 17.7394 22.5457 14.8938 22.9432 11.5578C22.6184 11.9494 22.3224 12.3598 22.0273 12.7688C21.4487 13.5709 20.8735 14.3681 20.0917 15.0108C18.8778 16.009 17.5463 16.3943 16.0864 16.8168L15.9308 16.8619C12.5934 17.8309 10.9434 20.6524 10.5624 23.936C10.8912 23.541 11.1924 23.1309 11.492 22.7229C12.1423 21.8374 12.7852 20.962 13.6869 20.2729Z" fill="#0E8784"/>
</g>
</svg>
