<svg width="1111" height="196" viewBox="0 0 1111 196" fill="none" xmlns="http://www.w3.org/2000/svg">
<g opacity="0.503176">
<path d="M66.7049 101.45C75.2049 101.45 82.6299 103.075 88.9799 106.325C95.3299 109.525 100.255 114.025 103.755 119.825C107.305 125.625 109.08 132.375 109.08 140.075C109.08 147.175 107.23 153.6 103.53 159.35C99.8299 165.1 94.7049 169.675 88.1549 173.075C81.6549 176.425 74.1049 178.1 65.5049 178.1C57.0049 178.1 49.5799 176.475 43.2299 173.225C36.8799 169.925 31.9299 165.375 28.3799 159.575C24.8799 153.775 23.1299 147.075 23.1299 139.475C23.1299 132.225 24.9799 125.75 28.6799 120.05C32.3799 114.3 37.4799 109.775 43.9799 106.475C50.5299 103.125 58.1049 101.45 66.7049 101.45ZM72.1799 167.225C74.0799 166.775 75.5299 165.45 76.5299 163.25C77.5299 161.05 77.9799 157.85 77.8799 153.65C77.7799 149.45 77.0299 144.125 75.6299 137.675C74.3299 131.475 72.8549 126.425 71.2049 122.525C69.6049 118.625 67.8549 115.825 65.9549 114.125C64.0549 112.425 62.0799 111.825 60.0299 112.325C58.1299 112.775 56.6799 114.1 55.6799 116.3C54.6799 118.5 54.2299 121.7 54.3299 125.9C54.4799 130.05 55.2299 135.375 56.5799 141.875C57.8799 148.025 59.3549 153.075 61.0049 157.025C62.6549 160.925 64.4049 163.725 66.2549 165.425C68.1549 167.075 70.1299 167.675 72.1799 167.225ZM172.162 160.625V159.65H171.037V125C171.037 123.4 170.812 122.275 170.362 121.625C169.962 120.925 169.337 120.45 168.487 120.2L166.837 119.675C165.787 119.325 165.012 118.825 164.512 118.175C164.062 117.525 163.837 116.7 163.837 115.7C163.837 114.5 164.162 113.55 164.812 112.85C165.462 112.15 166.687 111.45 168.487 110.75L185.137 104.3C187.687 103.3 189.737 102.575 191.287 102.125C192.887 101.675 194.437 101.45 195.937 101.45C198.187 101.45 199.887 102.1 201.037 103.4C202.237 104.65 202.837 106.25 202.837 108.2V160.25C202.837 162.25 202.987 163.675 203.287 164.525C203.587 165.325 204.112 165.9 204.862 166.25L206.512 167C207.662 167.5 208.487 168.125 208.987 168.875C209.487 169.625 209.737 170.5 209.737 171.5C209.737 172.9 209.287 174 208.387 174.8C207.487 175.6 206.037 176 204.037 176H185.662C182.112 176 178.962 174.475 176.212 171.425C173.512 168.375 172.162 164.775 172.162 160.625ZM122.587 154.1V125C122.587 123.4 122.362 122.275 121.912 121.625C121.512 120.925 120.887 120.45 120.037 120.2L118.387 119.675C117.337 119.325 116.562 118.825 116.062 118.175C115.612 117.525 115.387 116.7 115.387 115.7C115.387 114.5 115.712 113.55 116.362 112.85C117.012 112.15 118.237 111.45 120.037 110.75L136.687 104.3C139.387 103.25 141.512 102.525 143.062 102.125C144.612 101.675 145.987 101.45 147.187 101.45C149.587 101.45 151.387 102.1 152.587 103.4C153.787 104.65 154.387 106.25 154.387 108.2V149.6C154.387 152.8 155.112 155.2 156.562 156.8C158.062 158.4 160.137 159.2 162.787 159.2C164.437 159.2 166.162 158.875 167.962 158.225C169.762 157.575 171.362 156.625 172.762 155.375L175.387 153.05L179.887 157.85L177.637 159.95C170.587 166.7 164.462 171.425 159.262 174.125C154.062 176.775 149.287 178.1 144.937 178.1C138.287 178.1 132.887 175.875 128.737 171.425C124.637 166.975 122.587 161.2 122.587 154.1ZM254.183 135.05C254.183 127.4 255.183 121.1 257.183 116.15C259.183 111.15 261.833 107.45 265.133 105.05C268.483 102.65 272.133 101.45 276.083 101.45C281.383 101.45 285.433 103.05 288.233 106.25C291.083 109.4 292.508 114.175 292.508 120.575C292.508 127.125 291.183 131.95 288.533 135.05C285.933 138.15 282.533 139.7 278.333 139.7C274.083 139.7 270.883 138.625 268.733 136.475C266.633 134.275 265.583 131.25 265.583 127.4V124.25C265.533 122.95 265.233 121.975 264.683 121.325C264.183 120.625 263.383 120.275 262.283 120.275C261.283 120.275 260.383 120.725 259.583 121.625C258.833 122.475 258.233 123.9 257.783 125.9C257.333 127.85 257.108 130.5 257.108 133.85L254.183 135.05ZM255.008 108.2L257.108 123.875V160.25C257.108 162 257.358 163.25 257.858 164C258.358 164.7 259.508 165.225 261.308 165.575L267.008 166.7C268.508 167 269.608 167.525 270.308 168.275C271.008 169.025 271.358 170.075 271.358 171.425C271.358 172.875 270.858 174 269.858 174.8C268.908 175.6 267.483 176 265.583 176H224.108C222.108 176 220.658 175.6 219.758 174.8C218.858 174 218.408 172.9 218.408 171.5C218.408 170.5 218.658 169.625 219.158 168.875C219.658 168.125 220.483 167.5 221.633 167L223.283 166.25C224.033 165.9 224.558 165.325 224.858 164.525C225.158 163.675 225.308 162.25 225.308 160.25V125.3C225.308 123.7 225.083 122.575 224.633 121.925C224.233 121.225 223.608 120.75 222.758 120.5L221.108 119.975C220.058 119.625 219.283 119.125 218.783 118.475C218.333 117.825 218.108 117 218.108 116C218.108 114.8 218.433 113.85 219.083 113.15C219.783 112.4 221.008 111.7 222.758 111.05L238.883 104.75C242.433 103.35 244.983 102.45 246.533 102.05C248.083 101.65 249.283 101.45 250.133 101.45C251.533 101.45 252.608 101.975 253.358 103.025C254.108 104.025 254.658 105.75 255.008 108.2ZM404.068 124.625C404.068 128.425 402.618 131.65 399.718 134.3C396.868 136.95 393.043 138.275 388.243 138.275C383.593 138.275 380.093 137.05 377.743 134.6C375.443 132.1 374.293 128.925 374.293 125.075V122.675C374.293 119.425 373.618 116.875 372.268 115.025C370.918 113.125 369.143 112.175 366.943 112.175C365.193 112.175 363.543 112.825 361.993 114.125C360.493 115.425 359.268 117.425 358.318 120.125C357.368 122.775 356.893 126.15 356.893 130.25C356.893 136.05 357.868 140.9 359.818 144.8C361.818 148.7 364.543 151.65 367.993 153.65C371.443 155.6 375.368 156.575 379.768 156.575C382.968 156.575 385.843 156.2 388.393 155.45C390.993 154.65 393.568 153.125 396.118 150.875C397.568 149.575 398.668 148.7 399.418 148.25C400.168 147.8 400.893 147.575 401.593 147.575C402.593 147.575 403.318 148.075 403.768 149.075C404.268 150.075 404.518 151.3 404.518 152.75C404.518 157.2 403.018 161.375 400.018 165.275C397.068 169.125 392.943 172.225 387.643 174.575C382.343 176.925 376.193 178.1 369.193 178.1C361.543 178.1 354.668 176.6 348.568 173.6C342.518 170.55 337.718 166.325 334.168 160.925C330.618 155.475 328.843 149.125 328.843 141.875C328.843 134.125 330.543 127.2 333.943 121.1C337.393 115 342.243 110.2 348.493 106.7C354.793 103.2 362.218 101.45 370.768 101.45C377.618 101.45 383.518 102.5 388.468 104.6C393.468 106.65 397.318 109.425 400.018 112.925C402.718 116.425 404.068 120.325 404.068 124.625ZM456.06 101.45C464.56 101.45 471.985 103.075 478.335 106.325C484.685 109.525 489.61 114.025 493.11 119.825C496.66 125.625 498.435 132.375 498.435 140.075C498.435 147.175 496.585 153.6 492.885 159.35C489.185 165.1 484.06 169.675 477.51 173.075C471.01 176.425 463.46 178.1 454.86 178.1C446.36 178.1 438.935 176.475 432.585 173.225C426.235 169.925 421.285 165.375 417.735 159.575C414.235 153.775 412.485 147.075 412.485 139.475C412.485 132.225 414.335 125.75 418.035 120.05C421.735 114.3 426.835 109.775 433.335 106.475C439.885 103.125 447.46 101.45 456.06 101.45ZM461.535 167.225C463.435 166.775 464.885 165.45 465.885 163.25C466.885 161.05 467.335 157.85 467.235 153.65C467.135 149.45 466.385 144.125 464.985 137.675C463.685 131.475 462.21 126.425 460.56 122.525C458.96 118.625 457.21 115.825 455.31 114.125C453.41 112.425 451.435 111.825 449.385 112.325C447.485 112.775 446.035 114.1 445.035 116.3C444.035 118.5 443.585 121.7 443.685 125.9C443.835 130.05 444.585 135.375 445.935 141.875C447.235 148.025 448.71 153.075 450.36 157.025C452.01 160.925 453.76 163.725 455.61 165.425C457.51 167.075 459.485 167.675 461.535 167.225ZM545.242 69.5V160.25C545.242 162.25 545.392 163.675 545.692 164.525C545.992 165.325 546.517 165.9 547.267 166.25L548.917 167C550.067 167.5 550.892 168.125 551.392 168.875C551.892 169.625 552.142 170.5 552.142 171.5C552.142 172.9 551.692 174 550.792 174.8C549.892 175.6 548.442 176 546.442 176H512.242C510.242 176 508.792 175.6 507.892 174.8C506.992 174 506.542 172.9 506.542 171.5C506.542 170.5 506.792 169.625 507.292 168.875C507.792 168.125 508.617 167.5 509.767 167L511.417 166.25C512.167 165.9 512.692 165.325 512.992 164.525C513.292 163.675 513.442 162.25 513.442 160.25V86.3C513.442 84.7 513.217 83.575 512.767 82.925C512.367 82.225 511.742 81.75 510.892 81.5L509.242 80.975C508.192 80.625 507.417 80.125 506.917 79.475C506.467 78.825 506.242 78 506.242 77C506.242 75.8 506.567 74.85 507.217 74.15C507.867 73.45 509.092 72.75 510.892 72.05L527.542 65.6C530.242 64.55 532.367 63.825 533.917 63.425C535.467 62.975 536.842 62.75 538.042 62.75C540.442 62.75 542.242 63.4 543.442 64.7C544.642 65.95 545.242 67.55 545.242 69.5ZM597.977 69.5V160.25C597.977 162.25 598.127 163.675 598.427 164.525C598.727 165.325 599.252 165.9 600.002 166.25L601.652 167C602.802 167.5 603.627 168.125 604.127 168.875C604.627 169.625 604.877 170.5 604.877 171.5C604.877 172.9 604.427 174 603.527 174.8C602.627 175.6 601.177 176 599.177 176H564.977C562.977 176 561.527 175.6 560.627 174.8C559.727 174 559.277 172.9 559.277 171.5C559.277 170.5 559.527 169.625 560.027 168.875C560.527 168.125 561.352 167.5 562.502 167L564.152 166.25C564.902 165.9 565.427 165.325 565.727 164.525C566.027 163.675 566.177 162.25 566.177 160.25V86.3C566.177 84.7 565.952 83.575 565.502 82.925C565.102 82.225 564.477 81.75 563.627 81.5L561.977 80.975C560.927 80.625 560.152 80.125 559.652 79.475C559.202 78.825 558.977 78 558.977 77C558.977 75.8 559.302 74.85 559.952 74.15C560.602 73.45 561.827 72.75 563.627 72.05L580.277 65.6C582.977 64.55 585.102 63.825 586.652 63.425C588.202 62.975 589.577 62.75 590.777 62.75C593.177 62.75 594.977 63.4 596.177 64.7C597.377 65.95 597.977 67.55 597.977 69.5ZM687.986 130.4C687.986 133.9 687.036 136.625 685.136 138.575C683.236 140.475 680.511 141.425 676.961 141.425H632.486V133.625H652.511C655.261 133.625 656.636 132.325 656.636 129.725C656.636 123.425 655.911 118.925 654.461 116.225C653.011 113.525 651.086 112.175 648.686 112.175C646.936 112.175 645.361 112.825 643.961 114.125C642.561 115.425 641.436 117.425 640.586 120.125C639.786 122.775 639.386 126.15 639.386 130.25C639.386 139.35 641.436 146.025 645.536 150.275C649.636 154.475 655.236 156.575 662.336 156.575C665.636 156.575 668.636 156.2 671.336 155.45C674.036 154.7 676.686 153.175 679.286 150.875C680.736 149.575 681.836 148.7 682.586 148.25C683.336 147.8 684.061 147.575 684.761 147.575C685.761 147.575 686.486 148.075 686.936 149.075C687.436 150.075 687.686 151.3 687.686 152.75C687.686 157.2 686.161 161.375 683.111 165.275C680.111 169.125 675.911 172.225 670.511 174.575C665.161 176.925 658.911 178.1 651.761 178.1C644.111 178.1 637.236 176.6 631.136 173.6C625.036 170.55 620.211 166.325 616.661 160.925C613.111 155.475 611.336 149.125 611.336 141.875C611.336 133.725 612.961 126.625 616.211 120.575C619.461 114.525 624.186 109.825 630.386 106.475C636.636 103.125 644.161 101.45 652.961 101.45C660.711 101.45 667.186 102.7 672.386 105.2C677.586 107.7 681.486 111.125 684.086 115.475C686.686 119.825 687.986 124.8 687.986 130.4ZM770.572 124.625C770.572 128.425 769.122 131.65 766.222 134.3C763.372 136.95 759.547 138.275 754.747 138.275C750.097 138.275 746.597 137.05 744.247 134.6C741.947 132.1 740.797 128.925 740.797 125.075V122.675C740.797 119.425 740.122 116.875 738.772 115.025C737.422 113.125 735.647 112.175 733.447 112.175C731.697 112.175 730.047 112.825 728.497 114.125C726.997 115.425 725.772 117.425 724.822 120.125C723.872 122.775 723.397 126.15 723.397 130.25C723.397 136.05 724.372 140.9 726.322 144.8C728.322 148.7 731.047 151.65 734.497 153.65C737.947 155.6 741.872 156.575 746.272 156.575C749.472 156.575 752.347 156.2 754.897 155.45C757.497 154.65 760.072 153.125 762.622 150.875C764.072 149.575 765.172 148.7 765.922 148.25C766.672 147.8 767.397 147.575 768.097 147.575C769.097 147.575 769.822 148.075 770.272 149.075C770.772 150.075 771.022 151.3 771.022 152.75C771.022 157.2 769.522 161.375 766.522 165.275C763.572 169.125 759.447 172.225 754.147 174.575C748.847 176.925 742.697 178.1 735.697 178.1C728.047 178.1 721.172 176.6 715.072 173.6C709.022 170.55 704.222 166.325 700.672 160.925C697.122 155.475 695.347 149.125 695.347 141.875C695.347 134.125 697.047 127.2 700.447 121.1C703.897 115 708.747 110.2 714.997 106.7C721.297 103.2 728.722 101.45 737.272 101.45C744.122 101.45 750.022 102.5 754.972 104.6C759.972 106.65 763.822 109.425 766.522 112.925C769.222 116.425 770.572 120.325 770.572 124.625ZM782.439 113.45L780.039 112.475C778.939 112.025 778.114 111.45 777.564 110.75C777.014 110.05 776.739 109.2 776.739 108.2C776.739 106.75 777.214 105.65 778.164 104.9C779.164 104.1 780.439 103.7 781.989 103.7H786.114C787.064 103.7 787.939 103.45 788.739 102.95C789.589 102.45 790.664 101.55 791.964 100.25L804.189 87.875C805.839 86.225 807.364 85 808.764 84.2C810.214 83.4 811.589 83 812.889 83C814.339 83 815.464 83.475 816.264 84.425C817.114 85.375 817.539 86.75 817.539 88.55V148.7C817.539 152.35 818.164 155.125 819.414 157.025C820.664 158.925 822.464 159.875 824.814 159.875C826.714 159.875 828.164 159.4 829.164 158.45C830.214 157.5 831.039 156.425 831.639 155.225C832.289 153.975 832.964 152.875 833.664 151.925C834.364 150.975 835.314 150.5 836.514 150.5C837.514 150.5 838.314 150.85 838.914 151.55C839.514 152.25 839.814 153.45 839.814 155.15C839.814 159.4 838.589 163.275 836.139 166.775C833.689 170.225 830.314 172.975 826.014 175.025C821.714 177.075 816.814 178.1 811.314 178.1C803.164 178.1 796.864 176.15 792.414 172.25C787.964 168.3 785.739 162.35 785.739 154.4V118.325C785.739 116.875 785.464 115.825 784.914 115.175C784.414 114.525 783.589 113.95 782.439 113.45ZM806.589 114.35V103.7H833.964C835.514 103.7 836.739 104.05 837.639 104.75C838.589 105.4 839.064 106.35 839.064 107.6C839.064 109.5 838.139 111.1 836.289 112.4C834.439 113.7 831.389 114.35 827.139 114.35H806.589ZM884.647 108.2V160.25C884.647 162.25 884.797 163.675 885.097 164.525C885.397 165.325 885.922 165.9 886.672 166.25L888.322 167C889.472 167.5 890.297 168.125 890.797 168.875C891.297 169.625 891.547 170.5 891.547 171.5C891.547 172.9 891.097 174 890.197 174.8C889.297 175.6 887.847 176 885.847 176H851.647C849.647 176 848.197 175.6 847.297 174.8C846.397 174 845.947 172.9 845.947 171.5C845.947 170.5 846.197 169.625 846.697 168.875C847.197 168.125 848.022 167.5 849.172 167L850.822 166.25C851.572 165.9 852.097 165.325 852.397 164.525C852.697 163.675 852.847 162.25 852.847 160.25V125C852.847 123.4 852.622 122.275 852.172 121.625C851.772 120.925 851.147 120.45 850.297 120.2L848.647 119.675C847.597 119.325 846.822 118.825 846.322 118.175C845.872 117.525 845.647 116.7 845.647 115.7C845.647 114.5 845.972 113.55 846.622 112.85C847.272 112.15 848.497 111.45 850.297 110.75L866.947 104.3C869.647 103.25 871.772 102.525 873.322 102.125C874.872 101.675 876.247 101.45 877.447 101.45C879.847 101.45 881.647 102.1 882.847 103.4C884.047 104.65 884.647 106.25 884.647 108.2ZM867.097 94.85C861.497 94.85 857.072 93.55 853.822 90.95C850.572 88.35 848.947 84.8 848.947 80.3C848.947 75.85 850.572 72.35 853.822 69.8C857.072 67.25 861.497 65.975 867.097 65.975C872.697 65.975 877.122 67.25 880.372 69.8C883.622 72.35 885.247 75.85 885.247 80.3C885.247 84.8 883.622 88.35 880.372 90.95C877.122 93.55 872.697 94.85 867.097 94.85ZM941.656 101.45C950.156 101.45 957.581 103.075 963.931 106.325C970.281 109.525 975.206 114.025 978.706 119.825C982.256 125.625 984.031 132.375 984.031 140.075C984.031 147.175 982.181 153.6 978.481 159.35C974.781 165.1 969.656 169.675 963.106 173.075C956.606 176.425 949.056 178.1 940.456 178.1C931.956 178.1 924.531 176.475 918.181 173.225C911.831 169.925 906.881 165.375 903.331 159.575C899.831 153.775 898.081 147.075 898.081 139.475C898.081 132.225 899.931 125.75 903.631 120.05C907.331 114.3 912.431 109.775 918.931 106.475C925.481 103.125 933.056 101.45 941.656 101.45ZM947.131 167.225C949.031 166.775 950.481 165.45 951.481 163.25C952.481 161.05 952.931 157.85 952.831 153.65C952.731 149.45 951.981 144.125 950.581 137.675C949.281 131.475 947.806 126.425 946.156 122.525C944.556 118.625 942.806 115.825 940.906 114.125C939.006 112.425 937.031 111.825 934.981 112.325C933.081 112.775 931.631 114.1 930.631 116.3C929.631 118.5 929.181 121.7 929.281 125.9C929.431 130.05 930.181 135.375 931.531 141.875C932.831 148.025 934.306 153.075 935.956 157.025C937.606 160.925 939.356 163.725 941.206 165.425C943.106 167.075 945.081 167.675 947.131 167.225ZM1030.84 108.2V160.25C1030.84 162.25 1030.99 163.65 1031.29 164.45C1031.59 165.25 1032.11 165.85 1032.86 166.25L1034.36 167.075C1036.01 168.025 1036.84 169.4 1036.84 171.2C1036.84 174.4 1034.91 176 1031.06 176H997.838C995.838 176 994.388 175.6 993.488 174.8C992.588 174 992.138 172.9 992.138 171.5C992.138 170.5 992.388 169.625 992.888 168.875C993.388 168.125 994.213 167.5 995.363 167L997.013 166.25C997.763 165.9 998.288 165.325 998.588 164.525C998.888 163.675 999.038 162.25 999.038 160.25V125C999.038 123.4 998.813 122.275 998.363 121.625C997.963 120.925 997.338 120.45 996.488 120.2L994.838 119.675C993.788 119.325 993.013 118.825 992.513 118.175C992.063 117.525 991.838 116.7 991.838 115.7C991.838 114.5 992.163 113.55 992.813 112.85C993.463 112.15 994.688 111.45 996.488 110.75L1013.14 104.3C1015.69 103.3 1017.74 102.575 1019.29 102.125C1020.89 101.675 1022.44 101.45 1023.94 101.45C1026.19 101.45 1027.89 102.1 1029.04 103.4C1030.24 104.65 1030.84 106.25 1030.84 108.2ZM1028.14 126.5L1023.64 121.7L1025.89 119.6C1032.94 112.85 1039.06 108.15 1044.26 105.5C1049.46 102.8 1054.24 101.45 1058.59 101.45C1065.29 101.45 1070.69 103.675 1074.79 108.125C1078.89 112.525 1080.94 118.3 1080.94 125.45V160.25C1080.94 162.25 1081.09 163.675 1081.39 164.525C1081.69 165.325 1082.21 165.9 1082.96 166.25L1084.61 167C1085.76 167.5 1086.59 168.125 1087.09 168.875C1087.59 169.625 1087.84 170.5 1087.84 171.5C1087.84 172.9 1087.39 174 1086.49 174.8C1085.59 175.6 1084.14 176 1082.14 176H1048.91C1045.06 176 1043.14 174.4 1043.14 171.2C1043.14 169.4 1043.96 168.025 1045.61 167.075L1047.11 166.25C1047.86 165.85 1048.39 165.25 1048.69 164.45C1048.99 163.65 1049.14 162.25 1049.14 160.25V129.95C1049.14 126.75 1048.39 124.35 1046.89 122.75C1045.44 121.15 1043.39 120.35 1040.74 120.35C1039.09 120.35 1037.36 120.675 1035.56 121.325C1033.76 121.975 1032.16 122.925 1030.76 124.175L1028.14 126.5Z" fill="#83888F"/>
<rect width="1111" height="196" fill="url(#paint0_linear)"/>
</g>
<defs>
<linearGradient id="paint0_linear" x1="0" y1="0" x2="0" y2="196" gradientUnits="userSpaceOnUse">
<stop stop-color="#FEFCF7" stop-opacity="0.01"/>
<stop offset="1" stop-color="#FEFCF7"/>
</linearGradient>
</defs>
</svg>
